<svg fill="#8391a2" xmlns="http://www.w3.org/2000/svg"  viewBox="0 0 50 50" width="50px" height="50px"><path d="M 25 1 C 19.672869 1 15.604123 5.9531422 15.166016 12 L 5.0585938 12 C 3.9235937 12 2.999376 12.980995 3.0625 14.113281 L 4.7871094 44.285156 C 4.9365844 46.922145 7.1369035 49 9.7773438 49 L 40.222656 49 C 42.863851 49 45.063433 46.921831 45.212891 44.285156 L 46.9375 14.115234 C 47.002643 12.982141 46.076406 12 44.941406 12 L 34.833984 12 C 34.395877 5.9531422 30.327131 1 25 1 z M 25 3 C 29.036936 3 32.408924 6.8867916 32.835938 12 L 17.164062 12 C 17.591075 6.8867916 20.963064 3 25 3 z M 25.080078 18 C 28.920078 18 31.799062 20.060938 32.039062 20.210938 L 31.009766 21.880859 C 30.759766 21.710859 30.310625 21.439844 30.140625 21.339844 C 29.120625 20.789844 27.240078 19.970703 25.080078 19.970703 C 21.830078 19.970703 19.480469 21.77 19.480469 24.25 C 19.480469 26.72 21.660234 27.699766 25.240234 29.009766 C 28.870234 30.329766 32.970703 31.829609 32.970703 36.599609 C 32.970703 40.189609 29.430156 43.009766 24.910156 43.009766 C 20.920156 43.009766 17.640078 40.560156 16.830078 39.910156 L 17.939453 38.259766 C 17.969453 38.289766 21.160156 41.029297 24.910156 41.029297 C 28.270156 41.029297 31 39.039609 31 36.599609 C 31 33.439609 28.570547 32.319375 24.560547 30.859375 C 21.260547 29.649375 17.509766 28.28 17.509766 24.25 C 17.509766 20.69 20.760078 18 25.080078 18 z"/></svg>